<svg width="18" height="19" viewBox="0 0 18 19" fill="none" xmlns="http://www.w3.org/2000/svg">
<path d="M9.42884 0C4.69503 0 0.857422 3.83761 0.857422 8.57142C0.857254 10.2631 1.35758 11.917 2.2954 13.3249C3.23323 14.7329 4.56663 15.8319 6.12773 16.4836C7.06498 17.7773 8.20423 18.4979 8.20423 18.4979C8.20423 18.4979 4.85192 14.8294 6.00946 11.3852C6.30453 10.5061 6.84754 9.80009 7.34705 9.03476C7.81161 8.32268 7.93436 7.44436 7.99045 6.59612C8.04816 5.72837 8.01809 4.76958 7.44419 4.11683C8.17904 4.65049 8.55255 5.57677 8.60702 6.48353C8.66148 7.3903 8.43509 8.28935 8.17213 9.15872C9.80114 8.48728 11.7281 8.58483 13.2807 9.41681C12.7117 9.19652 9.69872 8.67912 8.30097 10.6727C7.53044 11.7702 7.09988 13.0702 7.06295 14.4107C7.04832 15.0814 7.15603 15.7203 7.33648 16.3409C7.3942 16.5397 7.45842 16.7368 7.53076 16.9323C8.15362 17.0732 8.79024 17.1442 9.42884 17.1441C14.1626 17.1441 18.0003 13.3064 18.0003 8.57264C18.0003 3.83883 14.1626 0 9.42884 0ZM15.6803 4.69195C15.6803 4.69195 15.3767 5.39102 14.9329 5.60278C14.6508 5.73772 14.4276 5.74381 14.272 5.66618L15.0442 4.99515L14.0362 5.17317C14.0744 5.00368 14.2191 4.8342 14.5012 4.69967C14.9459 4.48751 15.6799 4.69195 15.6803 4.69195ZM12.9754 6.53922C13.1213 6.31608 13.4225 6.15107 13.8985 6.11001C14.6504 6.04539 15.5941 6.73471 15.5941 6.73471C15.5941 6.73471 14.7812 7.57483 14.0297 7.63945C13.5522 7.68009 13.2291 7.56873 13.0474 7.37404L14.5187 6.82698L12.9754 6.53922ZM9.1488 3.36045C9.3252 2.66747 10.236 2.03708 10.236 2.03708C10.236 2.03708 10.7351 3.02595 10.5587 3.71893C10.447 4.1591 10.2462 4.41394 10.0153 4.51596L9.98404 3.02839L9.24553 4.32005C9.09149 4.12008 9.03703 3.80265 9.1488 3.36045ZM7.0406 6.59612C6.46914 6.73756 5.6587 6.32136 5.6587 6.32136C5.6587 6.32136 6.1826 5.57514 6.75406 5.4337C7.11701 5.34388 7.37957 5.39062 7.54336 5.51864L6.47524 6.11936L7.69944 6.1531C7.61449 6.34291 7.40355 6.5063 7.0406 6.59612ZM8.15546 4.36517L7.0345 3.78924L7.69944 4.8594C7.48849 4.89395 7.22837 4.80575 6.94549 4.54481C6.49841 4.13431 6.39761 3.20356 6.39761 3.20356C6.39761 3.20356 7.33527 3.23039 7.77951 3.64089C8.06361 3.89979 8.17253 4.15179 8.15546 4.36517ZM8.73545 3.22307L8.26032 2.05496L8.06726 3.30029C7.88477 3.18893 7.74496 2.95238 7.70147 2.5687C7.63115 1.96717 8.16075 1.1925 8.16075 1.1925C8.16075 1.1925 8.85494 1.8241 8.92526 2.42563C8.96875 2.81013 8.88746 3.07106 8.73545 3.22307ZM9.88568 8.16498C9.71008 8.16506 9.5384 8.11306 9.39236 8.01555C9.24633 7.91804 9.13249 7.77941 9.06525 7.61719C8.99802 7.45498 8.9804 7.27646 9.01464 7.10424C9.04888 6.93201 9.13343 6.7738 9.2576 6.64964C9.38176 6.52547 9.53997 6.44092 9.7122 6.40668C9.88442 6.37244 10.0629 6.39006 10.2252 6.45729C10.3874 6.52453 10.526 6.63837 10.6235 6.7844C10.721 6.93044 10.773 7.10212 10.7729 7.27772C10.7729 7.51303 10.6795 7.73871 10.5131 7.9051C10.3467 8.0715 10.121 8.16498 9.88568 8.16498ZM11.2351 2.21063C11.461 1.64852 12.2942 1.21932 12.2942 1.21932C12.2942 1.21932 12.604 2.10495 12.3792 2.66747C12.2365 3.02513 12.0402 3.21657 11.835 3.27713L11.9727 2.02448L11.2103 3.02798C11.1026 2.84224 11.0924 2.56789 11.2351 2.21063ZM12.0849 5.68691L13.3924 3.93922L11.3716 4.76551C11.3737 4.39443 11.5992 3.9758 12.1264 3.56773C12.9563 2.92515 14.5797 3.01863 14.5797 3.01863C14.5797 3.01863 14.2634 4.6135 13.4335 5.25405C12.9063 5.66415 12.4446 5.77755 12.0849 5.68691ZM11.6326 11.8172C11.6326 11.8172 10.9514 11.1718 10.892 10.5691C10.855 10.1862 10.942 9.92568 11.0952 9.77814L11.5468 10.9568L11.7651 9.71555C11.9451 9.83098 12.08 10.07 12.117 10.4528C12.178 11.054 11.6326 11.8172 11.6326 11.8172ZM13.1994 10.2699C12.7649 10.0102 12.5568 9.71514 12.5214 9.43592L14.1196 9.87609L12.9754 8.67669C13.2384 8.57548 13.5969 8.61897 14.0322 8.87991C14.7158 9.28878 15.0987 10.4618 15.0991 10.4622C15.0995 10.4626 13.883 10.6788 13.1994 10.2699ZM15.1548 9.05752C14.8467 9.0055 14.6605 8.88234 14.5776 8.72952L15.5958 8.62425L14.6683 8.19221C14.7967 8.07515 15.0129 8.01947 15.321 8.07028C15.8063 8.15156 16.29 8.7409 16.29 8.7409C16.29 8.7409 15.6401 9.13881 15.1548 9.05752Z" fill="white"/>
</svg>
